<svg xmlns="http://www.w3.org/2000/svg" width="590.853515625" height="331.0919189453125" viewBox="-288.0170593261719 -73.96922302246094 590.853515625 331.0919189453125"><title>Neo4j Graph Visualization</title><desc>Created using Neo4j (http://www.neo4j.com/)</desc><g class="layer relationships"><g class="relationship" transform="translate(-175.14933015051983 227.86312874747006) rotate(359.88138744223716)"><path class="outline" fill="#FFC454" stroke="none" d="M 25 2.5 L 88.11240816269809 2.5 L 88.11240816269809 -2.5 L 25 -2.5 Z M 105.11240816269809 2.5 L 168.22481632539618 2.5 L 168.22481632539618 5.5 L 179.22481632539618 0 L 168.22481632539618 -5.5 L 168.22481632539618 -2.5 L 105.11240816269809 -2.5 Z"/><text text-anchor="middle" pointer-events="none" font-size="8px" fill="#000000" x="96.61240816269809" y="3" font-family="sans-serif">NE</text></g><g class="relationship" transform="translate(-27.562253822704633 172.96394252278566) rotate(370.18430598979864)"><path class="outline" fill="#FFC454" stroke="none" d="M 25 2.5 L 139.11175089963942 2.5 L 139.11175089963942 -2.5 L 25 -2.5 Z M 156.11175089963942 2.5 L 270.22350179927884 2.5 L 270.22350179927884 5.5 L 281.22350179927884 0 L 270.22350179927884 -5.5 L 270.22350179927884 -2.5 L 156.11175089963942 -2.5 Z"/><text text-anchor="middle" pointer-events="none" font-size="8px" fill="#000000" x="147.61175089963942" y="3" font-family="sans-serif">NE</text></g><g class="relationship" transform="translate(29.075048557618132 227.44034698716308) rotate(360.5582297452773)"><path class="outline" fill="#FFC454" stroke="none" d="M 20.40063509461097,-14.665063509461095 L 22.90063509461097,-10.334936490538901 A 14.657846453395237 14.657846453395237 0 0 1 29.218743100581353,-12.263820756790555 L 28.873939645332612,-17.25191764611102 A 19.657846453395237 19.657846453395237 0 0 0 20.40063509461097,-14.665063509461095 Z M 28.873939645332612,-17.25191764611102 L 29.218743100581353,-12.263820756790555 A 14.657846453395237 14.657846453395237 0 0 1 35.742159666022985,-11.22261011459468 L 34.61390360966946,-8.442855040617552 L 46.87480831756706,-9.402133802946032 L 38.750842482965716,-18.635290311867024 L 37.62258642661219,-15.855535237889896 A 19.657846453395237 19.657846453395237 0 0 0 28.873939645332612,-17.25191764611102"/><text text-anchor="middle" pointer-events="none" font-size="8px" fill="#000000" x="29.04634137295698" y="-11.757869201450788" font-family="sans-serif"/></g><g class="relationship" transform="translate(99.11115827072967 228.122726686593) rotate(358.7465577286381)"><path class="outline" fill="#FFC454" stroke="none" d="M 20.40063509461097,-14.665063509461095 L 22.90063509461097,-10.334936490538901 A 16.114739118649013 16.114739118649013 0 0 1 29.864292837903776,-12.456744054415875 L 29.524941450338964,-17.445214825680136 A 21.114739118649013 21.114739118649013 0 0 0 20.40063509461097,-14.665063509461095 Z M 29.524941450338964,-17.445214825680136 L 29.864292837903776,-12.456744054415875 A 16.114739118649013 16.114739118649013 0 0 1 37.051147366755536,-11.29755533597079 L 35.91681760790104,-8.52027321163104 L 48.17978995504669,-9.452747990454107 L 40.07602672370085,-18.70364100087679 L 38.94169696484635,-15.926358876537039 A 21.114739118649013 21.114739118649013 0 0 0 29.524941450338964,-17.445214825680136"/><text text-anchor="middle" pointer-events="none" font-size="8px" fill="#000000" x="29.69461714412137" y="-11.950979440048005" font-family="sans-serif"/></g><g class="relationship" transform="translate(170.41789918702756 226.56252198401816) rotate(360.30269915032005)"><path class="outline" fill="#FFC454" stroke="none" d="M 23.501098044470403,-8.88529069328569 L 24.79519326998301,-4.055661561840347 A 91.45668188070238 91.45668188070238 0 0 1 37.93287794810438,-6.563403318817137 L 37.35702902280515,-11.53013242510346 A 96.45668188070238 96.45668188070238 0 0 0 23.501098044470403,-8.88529069328569 Z M 54.780140804459776,-11.965080935469047 L 54.45283240348877,-6.975805516066572 A 91.45668188070238 91.45668188070238 0 0 1 67.69928055069808,-5.12671414333108 L 67.06838002557751,-2.193803553592179 L 78.97903648400786,-5.257504376004743 L 69.3816819510196,-12.947809049301483 L 68.75078142589904,-10.014898459562582 A 96.45668188070238 96.45668188070238 0 0 0 54.780140804459776,-11.965080935469047"/><text text-anchor="middle" pointer-events="none" font-size="8px" fill="#000000" x="46.12113132098403" y="-6.64270941729518" font-family="sans-serif">NE</text></g><g class="relationship" transform="translate(-175.14933015051983 227.86312874747006) rotate(339.59589234880013)"><path class="outline" fill="#FFC454" stroke="none" d="M 25 2.5 L 64.73351533356828 2.5 L 64.73351533356828 -2.5 L 25 -2.5 Z M 81.73351533356828 2.5 L 121.46703066713656 2.5 L 121.46703066713656 5.5 L 132.46703066713656 0 L 121.46703066713656 -5.5 L 121.46703066713656 -2.5 L 81.73351533356828 -2.5 Z"/><text text-anchor="middle" pointer-events="none" font-size="8px" fill="#000000" x="73.23351533356828" y="3" font-family="sans-serif">NE</text></g><g class="relationship" transform="translate(29.075048557618132 227.44034698716308) rotate(360.5582297452773)"><path class="outline" fill="#4C8EDA" stroke="none" d="M 25 2.5 L 29.519716967021566 2.5 L 29.519716967021566 -2.5 L 25 -2.5 Z M 29.519716967021566 2.5 L 34.03943393404313 2.5 L 34.03943393404313 5.5 L 45.03943393404313 0 L 34.03943393404313 -5.5 L 34.03943393404313 -2.5 L 29.519716967021566 -2.5 Z"/><text text-anchor="middle" pointer-events="none" font-size="8px" fill="#000000" x="29.519716967021566" y="3" font-family="sans-serif"/></g><g class="relationship" transform="translate(29.075048557618132 227.44034698716308) rotate(360.5582297452773)"><path class="outline" fill="#569480" stroke="none" d="M 20.40063509461097,14.665063509461095 L 22.90063509461097,10.334936490538901 A 14.657846453395237 14.657846453395237 0 0 0 29.218743100581353,12.263820756790555 L 28.873939645332616,17.25191764611102 A 19.657846453395237 19.657846453395237 0 0 1 20.40063509461097,14.665063509461095 Z M 28.873939645332616,17.25191764611102 L 29.218743100581353,12.263820756790555 A 14.657846453395237 14.657846453395237 0 0 0 35.742159666022985,11.22261011459468 L 34.61390360966946,8.442855040617552 L 46.87480831756706,9.402133802946032 L 38.750842482965716,18.635290311867024 L 37.62258642661219,15.855535237889896 A 19.657846453395237 19.657846453395237 0 0 1 28.873939645332616,17.25191764611102"/><text text-anchor="middle" pointer-events="none" font-size="8px" fill="#000000" x="29.046341372956984" y="17.757869201450788" font-family="sans-serif"/></g><g class="relationship" transform="translate(99.11115827072967 228.122726686593) rotate(358.7465577286381)"><path class="outline" fill="#569480" stroke="none" d="M 25 2.5 L 30.161903828938968 2.5 L 30.161903828938968 -2.5 L 25 -2.5 Z M 30.161903828938968 2.5 L 35.323807657877936 2.5 L 35.323807657877936 5.5 L 46.323807657877936 0 L 35.323807657877936 -5.5 L 35.323807657877936 -2.5 L 30.161903828938968 -2.5 Z"/><text text-anchor="middle" pointer-events="none" font-size="8px" fill="#000000" x="30.161903828938968" y="3" font-family="sans-serif"/></g><g class="relationship" transform="translate(99.11115827072967 228.122726686593) rotate(358.7465577286381)"><path class="outline" fill="#4C8EDA" stroke="none" d="M 20.40063509461097,14.665063509461095 L 22.90063509461097,10.334936490538901 A 16.114739118649013 16.114739118649013 0 0 0 29.86429283790378,12.456744054415875 L 29.524941450338968,17.445214825680136 A 21.114739118649013 21.114739118649013 0 0 1 20.40063509461097,14.665063509461095 Z M 29.524941450338968,17.445214825680136 L 29.86429283790378,12.456744054415875 A 16.114739118649013 16.114739118649013 0 0 0 37.051147366755536,11.29755533597079 L 35.91681760790104,8.52027321163104 L 48.17978995504669,9.452747990454107 L 40.07602672370085,18.70364100087679 L 38.94169696484635,15.926358876537039 A 21.114739118649013 21.114739118649013 0 0 1 29.524941450338968,17.445214825680136"/><text text-anchor="middle" pointer-events="none" font-size="8px" fill="#000000" x="29.694617144121374" y="17.950979440048005" font-family="sans-serif"/></g><g class="relationship" transform="translate(170.41789918702756 226.56252198401816) rotate(360.30269915032005)"><path class="outline" fill="#4C8EDA" stroke="none" d="M 23.501098044470403,8.88529069328569 L 24.79519326998301,4.055661561840347 A 91.45668188070238 91.45668188070238 0 0 0 33.115496132488694,5.874533081064698 L 32.27627761425478,10.803601175405987 A 96.45668188070238 96.45668188070238 0 0 1 23.501098044470403,8.88529069328569 Z M 59.89081504435883,11.492967235279707 L 59.2985859484058,6.528164651298482 A 91.45668188070238 91.45668188070238 0 0 0 67.69928055069808,5.12671414333108 L 67.06838002557751,2.193803553592179 L 78.97903648400786,5.257504376004743 L 69.3816819510196,12.947809049301483 L 68.75078142589904,10.014898459562582 A 96.45668188070238 96.45668188070238 0 0 1 59.89081504435883,11.492967235279707"/><text text-anchor="middle" pointer-events="none" font-size="8px" fill="#000000" x="46.12113132098406" y="12.64270941729518" font-family="sans-serif">NEXT</text></g><g class="relationship" transform="translate(-259.01706587920216 226.40577582937985) rotate(360.9955171423583)"><path class="outline" fill="#FFC454" stroke="none" d="M 25 2.5 L 27.940198419249178 2.5 L 27.940198419249178 -2.5 L 25 -2.5 Z M 44.94019841924918 2.5 L 47.880396838498356 2.5 L 47.880396838498356 5.5 L 58.880396838498356 0 L 47.880396838498356 -5.5 L 47.880396838498356 -2.5 L 44.94019841924918 -2.5 Z"/><text text-anchor="middle" pointer-events="none" font-size="8px" fill="#000000" x="36.44019841924918" y="3" font-family="sans-serif">NE</text></g><g class="relationship" transform="translate(-175.14933015051983 227.86312874747006) rotate(264.3017098046621)"><path class="outline" fill="#F79767" stroke="none" d="M 15.90990257669732,19.445436482630054 L 19.445436482630058,15.909902576697316 A 163.13377469476174 163.13377469476174 0 0 0 95.20797863955227,58.813734201259365 L 93.99454333946252,63.664257345467206 A 168.13377469476174 168.13377469476174 0 0 1 15.90990257669732,19.445436482630054 Z M 166.4792092619927,65.67896432389674 L 165.5370792673009,60.76852737051857 A 163.13377469476174 163.13377469476174 0 0 0 243.56582751869112,22.13931551641276 L 241.56561524666438,19.90343741892318 L 253.43089076950852,16.668435600222693 L 248.8997269107624,28.101657109718307 L 246.89951463873567,25.865779012228725 A 168.13377469476174 168.13377469476174 0 0 1 166.4792092619927,65.67896432389674"/><text text-anchor="middle" pointer-events="none" font-size="8px" fill="#000000" x="130.19643120876555" y="69.12673508374854" transform="rotate(180 130.19643120876555 66.12673508374854)" font-family="sans-serif">FIRST_CHILD_OF</text></g><g class="relationship" transform="translate(-175.14933015051983 227.86312874747006) rotate(264.3017098046621)"><path class="outline" fill="#8DCC93" stroke="none" d="M 23.501098044470403,8.88529069328569 L 24.79519326998301,4.055661561840347 A 425.0198879155079 425.0198879155079 0 0 0 96.7678759798008,16.832966271773444 L 96.32047857662782,21.81290960113313 A 430.0198879155079 430.0198879155079 0 0 1 23.501098044470403,8.88529069328569 Z M 164.6425788949149,22.500994692965094 L 164.29557001318935,17.51305074420185 A 425.0198879155079 425.0198879155079 0 0 0 236.51099329248905,6.18789234839544 L 235.79305588738447,3.2750645329638974 L 247.78964311999187,5.982811709204912 L 238.42549303943463,13.955433189546222 L 237.70755563433005,11.042605374114679 A 430.0198879155079 430.0198879155079 0 0 1 164.6425788949149,22.500994692965094"/><text text-anchor="middle" pointer-events="none" font-size="8px" fill="#000000" x="130.4930176399752" y="24.016183258316914" transform="rotate(180 130.4930176399752 21.016183258316914)" font-family="sans-serif">LAST_CHILD_OF</text></g><g class="relationship" transform="translate(-175.14933015051983 227.86312874747006) rotate(264.3017098046621)"><path class="outline" fill="#F16667" stroke="none" d="M 23.501098044470403,-8.88529069328569 L 24.79519326998301,-4.055661561840347 A 425.0198879155079 425.0198879155079 0 0 1 102.7124128937246,-17.324997638937646 L 102.33494794645479,-22.310729301751337 A 430.0198879155079 430.0198879155079 0 0 0 23.501098044470403,-8.88529069328569 Z M 158.6193032237319,-22.877579934112532 L 158.34232919202665,-17.885257289715355 A 425.0198879155079 425.0198879155079 0 0 1 236.51099329248905,-6.18789234839544 L 235.79305588738447,-3.2750645329638974 L 247.78964311999187,-5.982811709204912 L 238.42549303943463,-13.955433189546222 L 237.70755563433005,-11.042605374114679 A 430.0198879155079 430.0198879155079 0 0 0 158.6193032237319,-22.877579934112532"/><text text-anchor="middle" pointer-events="none" font-size="8px" fill="#000000" x="130.493017639975" y="-18.016183258316914" transform="rotate(180 130.493017639975 -21.016183258316914)" font-family="sans-serif">IS_CHILD_OF</text></g><g class="relationship" transform="translate(-202.16250120486595 -42.85568824186171) rotate(444.3017098046621)"><path class="outline" fill="#4C8EDA" stroke="none" d="M 15.90990257669732,19.445436482630054 L 19.445436482630058,15.909902576697316 A 163.13377469476174 163.13377469476174 0 0 0 117.00454507753369,62.71733695226044 L 116.45916783221416,67.68750431969261 A 168.13377469476174 168.13377469476174 0 0 1 15.90990257669732,19.445436482630054 Z M 143.8257892871267,68.4481579354543 L 143.55733178970652,63.455370079748945 A 163.13377469476174 163.13377469476174 0 0 0 243.56582751869112,22.13931551641276 L 241.56561524666438,19.90343741892318 L 253.43089076950852,16.668435600222693 L 248.8997269107624,28.101657109718307 L 246.89951463873567,25.865779012228725 A 168.13377469476174 168.13377469476174 0 0 1 143.8257892871267,68.4481579354543"/><text text-anchor="middle" pointer-events="none" font-size="8px" fill="#000000" x="130.19643120876555" y="69.12673508374854" font-family="sans-serif">NEXT</text></g><g class="relationship" transform="translate(-175.14933015051983 227.86312874747006) rotate(298.26404022826034)"><path class="outline" fill="#4C8EDA" stroke="none" d="M 25 2.5 L 135.8820281409974 2.5 L 135.8820281409974 -2.5 L 25 -2.5 Z M 162.8820281409974 2.5 L 273.7640562819948 2.5 L 273.7640562819948 5.5 L 284.7640562819948 0 L 273.7640562819948 -5.5 L 273.7640562819948 -2.5 L 162.8820281409974 -2.5 Z"/><text text-anchor="middle" pointer-events="none" font-size="8px" fill="#000000" x="149.3820281409974" y="3" font-family="sans-serif">NEXT</text></g><g class="relationship" transform="translate(-259.01706587920216 226.40577582937985) rotate(281.92287295587244)"><path class="outline" fill="#569480" stroke="none" d="M 23.501098044470403,-8.88529069328569 L 24.79519326998301,-4.055661561840347 A 431.13095831775126 431.13095831775126 0 0 1 101.79889222190133,-17.356968015107384 L 101.39784002039681,-22.34085777428828 A 436.13095831775126 436.13095831775126 0 0 0 23.501098044470403,-8.88529069328569 Z M 162.6959068005011,-22.95143075618006 L 162.39421060028076,-17.960541115767967 A 431.13095831775126 431.13095831775126 0 0 1 239.64758600875726,-6.195746445295105 L 238.92900511494406,-3.2830773087389806 L 250.92619025430741,-5.98817411511009 L 241.5638017255925,-13.962864142778106 L 240.8452208317793,-11.050195006221982 A 436.13095831775126 436.13095831775126 0 0 0 162.6959068005011,-22.95143075618006"/><text text-anchor="middle" pointer-events="none" font-size="8px" fill="#000000" x="132.06103318884573" y="-18.224582768903133" font-family="sans-serif">NEXT_SIBLING</text></g><g class="relationship" transform="translate(-259.01706587920216 226.40577582937985) rotate(281.92287295587244)"><path class="outline" fill="#4C8EDA" stroke="none" d="M 23.501098044470403,8.88529069328569 L 24.79519326998301,4.055661561840347 A 431.13095831775126 431.13095831775126 0 0 0 118.66867954476018,18.382135164997692 L 118.46327308612558,23.37791420201995 A 436.13095831775126 436.13095831775126 0 0 1 23.501098044470403,8.88529069328569 Z M 145.61320211473418,23.648347088339392 L 145.5073496669461,18.649467687984043 A 431.13095831775126 431.13095831775126 0 0 0 239.64758600875726,6.195746445295105 L 238.92900511494406,3.2830773087389806 L 250.92619025430741,5.98817411511009 L 241.5638017255925,13.962864142778106 L 240.8452208317793,11.050195006221982 A 436.13095831775126 436.13095831775126 0 0 1 145.61320211473418,23.648347088339392"/><text text-anchor="middle" pointer-events="none" font-size="8px" fill="#000000" x="132.06103318884595" y="24.224582768903133" font-family="sans-serif">NEXT</text></g><g class="relationship" transform="translate(-202.16250120486595 -42.85568824186171) rotate(359.30286460812397)"><path class="outline" fill="#569480" stroke="none" d="M 25 2.5 L 50.85515536747785 2.5 L 50.85515536747785 -2.5 L 25 -2.5 Z M 111.85515536747785 2.5 L 137.7103107349557 2.5 L 137.7103107349557 5.5 L 148.7103107349557 0 L 137.7103107349557 -5.5 L 137.7103107349557 -2.5 L 111.85515536747785 -2.5 Z"/><text text-anchor="middle" pointer-events="none" font-size="8px" fill="#000000" x="81.35515536747785" y="3" font-family="sans-serif">NEXT_SIBLING</text></g><g class="relationship" transform="translate(-27.562253822704633 172.96394252278566) rotate(270.1991789418811)"><path class="outline" fill="#F79767" stroke="none" d="M 15.90990257669732,19.445436482630054 L 19.445436482630058,15.909902576697316 A 66.0711051450719 66.0711051450719 0 0 0 30.03392501075146,24.507422377182905 L 27.299686050988633,28.693582588034268 A 71.0711051450719 71.0711051450719 0 0 1 15.90990257669732,19.445436482630054 Z M 98.44122934078928,32.50985992200099 L 96.17051283063329,28.05521666686765 A 66.0711051450719 66.0711051450719 0 0 0 107.61799137087365,20.639782013346927 L 105.7357815164151,18.303698525160105 L 117.75213903960747,15.685082120487923 L 112.6372176494298,26.869337981845124 L 110.75500779497125,24.5332544936583 A 71.0711051450719 71.0711051450719 0 0 1 98.44122934078928,32.50985992200099"/><text text-anchor="middle" pointer-events="none" font-size="8px" fill="#000000" x="62.491653897447584" y="40.66323289760756" font-family="sans-serif">FIRST_CHILD_OF</text></g><g class="relationship" transform="translate(-27.562253822704633 172.96394252278566) rotate(270.1991789418811)"><path class="outline" fill="#F16667" stroke="none" d="M 23.501098044470403,8.88529069328569 L 24.79519326998301,4.055661561840347 A 159.83974318748417 159.83974318748417 0 0 0 35.705764223983024,6.573105604921949 L 34.75296618577891,11.481483738113639 A 164.83974318748417 164.83974318748417 0 0 1 23.501098044470403,8.88529069328569 Z M 91.32335706766466,12.570846128534697 L 90.5602342427325,7.629424920616117 A 159.83974318748417 159.83974318748417 0 0 0 101.55963610694464,5.533895946375788 L 100.89531685010822,2.6083737835822296 L 112.84015008455137,5.535993806970195 L 103.3311541251751,13.335288380491942 L 102.66683486833868,10.409766217698385 A 164.83974318748417 164.83974318748417 0 0 1 91.32335706766466,12.570846128534697"/><text text-anchor="middle" pointer-events="none" font-size="8px" fill="#000000" x="63.039205101669616" y="14.971977468993288" font-family="sans-serif">IS_CHILD_OF</text></g><g class="relationship" transform="translate(-27.085234742315386 35.74527021992944) rotate(450.1991789418811)"><path class="outline" fill="#4C8EDA" stroke="none" d="M 23.501098044470403,8.88529069328569 L 24.79519326998301,4.055661561840347 A 159.83974318748417 159.83974318748417 0 0 0 49.823645844944394,8.664562619770578 L 49.312473942375455,13.638364313246512 A 164.83974318748417 164.83974318748417 0 0 1 23.501098044470403,8.88529069328569 Z M 76.69160503557009,14.16559764556709 L 76.37229969509777,9.17580365186896 A 159.83974318748417 159.83974318748417 0 0 0 101.55963610694464,5.533895946375788 L 100.89531685010822,2.6083737835822296 L 112.84015008455137,5.535993806970195 L 103.3311541251751,13.335288380491942 L 102.66683486833868,10.409766217698385 A 164.83974318748417 164.83974318748417 0 0 1 76.69160503557009,14.16559764556709"/><text text-anchor="middle" pointer-events="none" font-size="8px" fill="#000000" x="63.039205101669616" y="14.971977468993288" transform="rotate(180 63.039205101669616 11.971977468993288)" font-family="sans-serif">NEXT</text></g><g class="relationship" transform="translate(-27.562253822704633 172.96394252278566) rotate(270.1991789418811)"><path class="outline" fill="#8DCC93" stroke="none" d="M 15.90990257669732,-19.445436482630054 L 19.445436482630058,-15.909902576697316 A 66.0711051450719 66.0711051450719 0 0 1 31.66247909810707,-25.537566625614794 L 29.051482672563992,-29.801684080118278 A 71.0711051450719 71.0711051450719 0 0 0 15.90990257669732,-19.445436482630054 Z M 96.58094216135082,-33.42419680200676 L 94.44110072170633,-28.90522804650731 A 66.0711051450719 66.0711051450719 0 0 1 107.61799137087365,-20.639782013346927 L 105.7357815164151,-18.303698525160105 L 117.75213903960747,-15.685082120487923 L 112.6372176494298,-26.869337981845124 L 110.75500779497125,-24.5332544936583 A 71.0711051450719 71.0711051450719 0 0 0 96.58094216135082,-33.42419680200676"/><text text-anchor="middle" pointer-events="none" font-size="8px" fill="#000000" x="62.49165389744757" y="-34.66323289760756" font-family="sans-serif">LAST_CHILD_OF</text></g><g class="relationship" transform="translate(-27.562253822704633 172.96394252278566) rotate(320.92916726893964)"><path class="outline" fill="#4C8EDA" stroke="none" d="M 25 2.5 L 91.0175211598992 2.5 L 91.0175211598992 -2.5 L 25 -2.5 Z M 118.0175211598992 2.5 L 184.0350423197984 2.5 L 184.0350423197984 5.5 L 195.0350423197984 0 L 184.0350423197984 -5.5 L 184.0350423197984 -2.5 L 118.0175211598992 -2.5 Z"/><text text-anchor="middle" pointer-events="none" font-size="8px" fill="#000000" x="104.5175211598992" y="3" font-family="sans-serif">NEXT</text></g><g class="relationship" transform="translate(29.075048557618132 227.44034698716308) rotate(300.5903463835184)"><path class="outline" fill="#F79767" stroke="none" d="M 23.501098044470403,8.88529069328569 L 24.79519326998301,4.055661561840347 A 331.9079843627722 331.9079843627722 0 0 0 71.04279281483309,12.987547683765342 L 70.44539067480983,17.95173046475719 A 336.9079843627722 336.9079843627722 0 0 1 23.501098044470403,8.88529069328569 Z M 142.8383152027488,18.828713241527737 L 142.36134499352568,13.851515292931197 A 331.9079843627722 331.9079843627722 0 0 0 188.81174614892706,6.042591816669413 L 188.1057151193852,3.1268551712701607 L 200.09113970667585,5.883591912848688 L 190.69449556103865,13.817889537734082 L 189.9884645314968,10.902152892334831 A 336.9079843627722 336.9079843627722 0 0 1 142.8383152027488,18.828713241527737"/><text text-anchor="middle" pointer-events="none" font-size="8px" fill="#000000" x="106.64851096832254" y="20.840616726343796" font-family="sans-serif">FIRST_CHILD_OF</text></g><g class="relationship" transform="translate(29.075048557618132 227.44034698716308) rotate(300.5903463835184)"><path class="outline" fill="#F16667" stroke="none" d="M 23.501098044470403,-8.88529069328569 L 24.79519326998301,-4.055661561840347 A 331.9079843627722 331.9079843627722 0 0 1 78.93670183076159,-13.84186356972316 L 78.45821682120575,-18.818916120744746 A 336.9079843627722 336.9079843627722 0 0 0 23.501098044470403,-8.88529069328569 Z M 134.80683309164874,-19.501534847454195 L 134.4490568832192,-14.514351656044255 A 331.9079843627722 331.9079843627722 0 0 1 188.81174614892706,-6.042591816669413 L 188.1057151193852,-3.1268551712701607 L 200.09113970667585,-5.883591912848688 L 190.69449556103865,-13.817889537734082 L 189.9884645314968,-10.902152892334831 A 336.9079843627722 336.9079843627722 0 0 0 134.80683309164874,-19.501534847454195"/><text text-anchor="middle" pointer-events="none" font-size="8px" fill="#000000" x="106.64851096832238" y="-14.840616726343796" font-family="sans-serif">IS_CHILD_OF</text></g><g class="relationship" transform="translate(99.11115827072967 228.122726686593) rotate(282.8322209026357)"><path class="outline" fill="#F16667" stroke="none" d="M 25 2.5 L 65.90396149809017 2.5 L 65.90396149809017 -2.5 L 25 -2.5 Z M 121.90396149809017 2.5 L 162.80792299618034 2.5 L 162.80792299618034 5.5 L 173.80792299618034 0 L 162.80792299618034 -5.5 L 162.80792299618034 -2.5 L 121.90396149809017 -2.5 Z"/><text text-anchor="middle" pointer-events="none" font-size="8px" fill="#000000" x="93.90396149809017" y="3" font-family="sans-serif">IS_CHILD_OF</text></g><g class="relationship" transform="translate(170.41789918702756 226.56252198401816) rotate(261.96242670184733)"><path class="outline" fill="#F16667" stroke="none" d="M 23.501098044470403,8.88529069328569 L 24.79519326998301,4.055661561840347 A 272.66976479105597 272.66976479105597 0 0 0 63.901996715192624,11.525068833993373 L 63.325010764248404,16.491665980170296 A 277.66976479105597 277.66976479105597 0 0 1 23.501098044470403,8.88529069328569 Z M 119.73087217363941,17.275728974071285 L 119.2921576673906,12.295013204023064 A 272.66976479105597 272.66976479105597 0 0 0 158.59146665771055,5.915480808705064 L 157.89585438161578,2.997241003386411 L 169.8713561739579,5.796768967456444 L 160.4464327272966,13.69745362288814 L 159.75082045120183,10.779213817569486 A 277.66976479105597 277.66976479105597 0 0 1 119.73087217363941,17.275728974071285"/><text text-anchor="middle" pointer-events="none" font-size="8px" fill="#000000" x="91.54272618393902" y="18.820078110464294" transform="rotate(180 91.54272618393902 15.820078110464294)" font-family="sans-serif">IS_CHILD_OF</text></g><g class="relationship" transform="translate(170.41789918702756 226.56252198401816) rotate(261.96242670184733)"><path class="outline" fill="#8DCC93" stroke="none" d="M 23.501098044470403,-8.88529069328569 L 24.79519326998301,-4.055661561840347 A 272.66976479105597 272.66976479105597 0 0 1 58.00417547348643,-10.774646295521904 L 57.31903999510514,-15.727482793556476 A 277.66976479105597 277.66976479105597 0 0 0 23.501098044470403,-8.88529069328569 Z M 125.75576320806704,-16.67877935661528 L 125.20855847712701,-11.708812859501165 A 272.66976479105597 272.66976479105597 0 0 1 158.59146665771055,-5.915480808705064 L 157.89585438161578,-2.997241003386411 L 169.8713561739579,-5.796768967456444 L 160.4464327272966,-13.69745362288814 L 159.75082045120183,-10.779213817569486 A 277.66976479105597 277.66976479105597 0 0 0 125.75576320806704,-16.67877935661528"/><text text-anchor="middle" pointer-events="none" font-size="8px" fill="#000000" x="91.54272618393905" y="-12.820078110464294" transform="rotate(180 91.54272618393905 -15.820078110464294)" font-family="sans-serif">LAST_CHILD_OF</text></g><g class="relationship" transform="translate(-28.465048642225838 -44.96922293148752) rotate(449.02062430158617)"><path class="outline" fill="#4C8EDA" stroke="none" d="M 25 2.5 L 34.86314312305387 2.5 L 34.86314312305387 -2.5 L 25 -2.5 Z M 34.86314312305387 2.5 L 44.72628624610773 2.5 L 44.72628624610773 5.5 L 55.72628624610773 0 L 44.72628624610773 -5.5 L 44.72628624610773 -2.5 L 34.86314312305387 -2.5 Z"/><text text-anchor="middle" pointer-events="none" font-size="8px" fill="#000000" x="34.86314312305387" y="3" font-family="sans-serif"/></g><g class="relationship" transform="translate(-27.085234742315386 35.74527021992944) rotate(359.5072205359231)"><path class="outline" fill="#569480" stroke="none" d="M 25 2.5 L 49.17865341486788 2.5 L 49.17865341486788 -2.5 L 25 -2.5 Z M 110.17865341486788 2.5 L 134.35730682973576 2.5 L 134.35730682973576 5.5 L 145.35730682973576 0 L 134.35730682973576 -5.5 L 134.35730682973576 -2.5 L 110.17865341486788 -2.5 Z"/><text text-anchor="middle" pointer-events="none" font-size="8px" fill="#000000" x="79.67865341486788" y="3" font-family="sans-serif">NEXT_SIBLING</text></g></g><g class="layer nodes"><g class="node" transform="translate(-175.14933015051983,227.86312874747006)"><circle class="outline" cx="0" cy="0" r="25" fill="#FFC454" stroke="#d7a013" stroke-width="2px"/><text text-anchor="middle" pointer-events="none" font-family="sans-serif" dy="1.5625" font-size="25" fill="#604A0E"/><text text-anchor="middle" pointer-events="none" y="5" font-size="10px" fill="#604A0E" font-family="sans-serif">  </text></g><g class="node" transform="translate(-27.562253822704633,172.96394252278566)"><circle class="outline" cx="0" cy="0" r="25" fill="#FFC454" stroke="#d7a013" stroke-width="2px"/><text text-anchor="middle" pointer-events="none" font-family="sans-serif" dy="1.5625" font-size="25" fill="#604A0E"/><text text-anchor="middle" pointer-events="none" y="5" font-size="10px" fill="#604A0E" font-family="sans-serif"> rotiren</text></g><g class="node" transform="translate(29.075048557618132,227.44034698716308)"><circle class="outline" cx="0" cy="0" r="25" fill="#FFC454" stroke="#d7a013" stroke-width="2px"/><text text-anchor="middle" pointer-events="none" font-family="sans-serif" dy="1.5625" font-size="25" fill="#604A0E"/><text text-anchor="middle" pointer-events="none" y="5" font-size="10px" fill="#604A0E" font-family="sans-serif"> bewegen</text></g><g class="node" transform="translate(99.11115827072967,228.122726686593)"><circle class="outline" cx="0" cy="0" r="25" fill="#FFC454" stroke="#d7a013" stroke-width="2px"/><text text-anchor="middle" pointer-events="none" font-family="sans-serif" dy="1.5625" font-size="25" fill="#604A0E"/><text text-anchor="middle" pointer-events="none" y="5" font-size="10px" fill="#604A0E" font-family="sans-serif">  </text></g><g class="node" transform="translate(170.41789918702756,226.56252198401816)"><circle class="outline" cx="0" cy="0" r="25" fill="#FFC454" stroke="#d7a013" stroke-width="2px"/><text text-anchor="middle" pointer-events="none" font-family="sans-serif" dy="1.5625" font-size="25" fill="#604A0E"/><text text-anchor="middle" pointer-events="none" y="5" font-size="10px" fill="#604A0E" font-family="sans-serif"> ſich</text></g><g class="node" transform="translate(273.83641397253524,227.1088970935263)"><circle class="outline" cx="0" cy="0" r="25" fill="#FFC454" stroke="#d7a013" stroke-width="2px"/><text text-anchor="middle" pointer-events="none" font-family="sans-serif" dy="1.5625" font-size="25" fill="#604A0E"/><text text-anchor="middle" pointer-events="none" y="5" font-size="10px" fill="#604A0E" font-family="sans-serif">  </text></g><g class="node" transform="translate(-259.01706587920216,226.40577582937985)"><circle class="outline" cx="0" cy="0" r="25" fill="#FFC454" stroke="#d7a013" stroke-width="2px"/><text text-anchor="middle" pointer-events="none" font-family="sans-serif" dy="1.5625" font-size="25" fill="#604A0E"/><text text-anchor="middle" pointer-events="none" y="5" font-size="10px" fill="#604A0E" font-family="sans-serif"> ſie</text></g><g class="node" transform="translate(-202.16250120486595,-42.85568824186171)"><circle class="outline" cx="0" cy="0" r="25" fill="#57C7E3" stroke="#23b3d7" stroke-width="2px"/><text text-anchor="middle" pointer-events="none" font-family="sans-serif" dy="1.5625" font-size="25" fill="#FFFFFF"/><text text-anchor="middle" pointer-events="none" y="5" font-size="10px" fill="#FFFFFF" font-family="sans-serif"> lb</text></g><g class="node" transform="translate(-28.465048642225838,-44.96922293148752)"><circle class="outline" cx="0" cy="0" r="25" fill="#57C7E3" stroke="#23b3d7" stroke-width="2px"/><text text-anchor="middle" pointer-events="none" font-family="sans-serif" dy="1.5625" font-size="25" fill="#FFFFFF"/><text text-anchor="middle" pointer-events="none" y="5" font-size="10px" fill="#FFFFFF" font-family="sans-serif"> subst</text></g><g class="node" transform="translate(-27.085234742315386,35.74527021992944)"><circle class="outline" cx="0" cy="0" r="25" fill="#57C7E3" stroke="#23b3d7" stroke-width="2px"/><text text-anchor="middle" pointer-events="none" font-family="sans-serif" dy="1.5625" font-size="25" fill="#FFFFFF"/><text text-anchor="middle" pointer-events="none" y="5" font-size="10px" fill="#FFFFFF" font-family="sans-serif"> del</text></g><g class="node" transform="translate(143.26577139861737,34.280109118675995)"><circle class="outline" cx="0" cy="0" r="25" fill="#57C7E3" stroke="#23b3d7" stroke-width="2px"/><text text-anchor="middle" pointer-events="none" font-family="sans-serif" dy="1.5625" font-size="25" fill="#FFFFFF"/><text text-anchor="middle" pointer-events="none" y="5" font-size="10px" fill="#FFFFFF" font-family="sans-serif"> add</text></g></g></svg>