<svg xmlns="http://www.w3.org/2000/svg" width="493.54638671875" height="298.67816162109375" viewBox="-363.70306396484375 -94.54751586914062 493.54638671875 298.67816162109375"><title>Neo4j Graph Visualization</title><desc>Created using Neo4j (http://www.neo4j.com/)</desc><g class="layer relationships"><g class="relationship" transform="translate(-256.4154626228092 175.08586952854478) rotate(358.6472121117745)"><path class="outline" fill="#FFC454" stroke="none" d="M 25 2.5 L 31.377421358012192 2.5 L 31.377421358012192 -2.5 L 25 -2.5 Z M 31.377421358012192 2.5 L 37.754842716024385 2.5 L 37.754842716024385 5.5 L 48.754842716024385 0 L 37.754842716024385 -5.5 L 37.754842716024385 -2.5 L 31.377421358012192 -2.5 Z"/><text text-anchor="middle" pointer-events="none" font-size="8px" fill="#000000" x="31.377421358012192" y="3" font-family="sans-serif"/></g><g class="relationship" transform="translate(-182.68117665980293 173.34463502649874) rotate(360.8341700768641)"><path class="outline" fill="#FFC454" stroke="none" d="M 25 2.5 L 30.878009870674788 2.5 L 30.878009870674788 -2.5 L 25 -2.5 Z M 30.878009870674788 2.5 L 36.756019741349576 2.5 L 36.756019741349576 5.5 L 47.756019741349576 0 L 36.756019741349576 -5.5 L 36.756019741349576 -2.5 L 30.878009870674788 -2.5 Z"/><text text-anchor="middle" pointer-events="none" font-size="8px" fill="#000000" x="30.878009870674788" y="3" font-family="sans-serif"/></g><g class="relationship" transform="translate(-109.93286764344768 174.40385354245024) rotate(358.25649357550594)"><path class="outline" fill="#FFC454" stroke="none" d="M 20.40063509461097,-14.665063509461095 L 22.90063509461097,-10.334936490538901 A 12.924699345418842 12.924699345418842 0 0 1 28.454408552186884,-12.034542920215165 L 28.102920215456038,-17.02217321416661 A 17.924699345418844 17.924699345418844 0 0 0 20.40063509461097,-14.665063509461095 Z M 28.102920215456038,-17.02217321416661 L 28.454408552186884,-12.034542920215165 A 12.924699345418842 12.924699345418842 0 0 1 34.19165672603511,-11.130637490678005 L 33.070855731830264,-8.347868162941797 L 45.32914508957192,-9.340008285040405 L 37.18045937724804,-18.55135569797456 L 36.05965838304319,-15.768586370238353 A 17.924699345418844 17.924699345418844 0 0 0 28.102920215456038,-17.02217321416661"/><text text-anchor="middle" pointer-events="none" font-size="8px" fill="#000000" x="28.27866438382146" y="-11.528358067190887" font-family="sans-serif"/></g><g class="relationship" transform="translate(-41.445699285834806 172.31915046073476) rotate(359.7680886237747)"><path class="outline" fill="#FFC454" stroke="none" d="M 20.40063509461097,-14.665063509461095 L 22.90063509461097,-10.334936490538901 A 13.958740256245072 13.958740256245072 0 0 1 28.90994672681783,-12.17130532131607 L 28.562473216276047,-17.159216924329076 A 18.958740256245072 18.958740256245072 0 0 0 20.40063509461097,-14.665063509461095 Z M 28.562473216276047,-17.159216924329076 L 28.90994672681783,-12.17130532131607 A 13.958740256245072 13.958740256245072 0 0 1 35.11583298561523,-11.185885350696307 L 33.990553554928944,-8.404923969649396 L 46.25042424169248,-9.377328589052361 L 38.11657813411198,-18.601782366821407 L 36.9912987034257,-15.820820985774496 A 18.958740256245072 18.958740256245072 0 0 0 28.562473216276047,-17.159216924329076"/><text text-anchor="middle" pointer-events="none" font-size="8px" fill="#000000" x="28.736209971546938" y="-11.66526112282257" font-family="sans-serif"/></g><g class="relationship" transform="translate(27.97883442921409 172.03814499715426) rotate(359.9864707767251)"><path class="outline" fill="#FFC454" stroke="none" d="M 23.501098044470403,-8.88529069328569 L 24.79519326998301,-4.055661561840347 A 27.17193110991166 27.17193110991166 0 0 1 30.901778133328808,-4.965738400883904 L 30.731376479436932,-9.962833884897684 A 32.17193110991166 32.17193110991166 0 0 0 23.501098044470403,-8.88529069328569 Z M 30.731376479436932,-9.962833884897684 L 30.901778133328808,-4.965738400883904 A 27.17193110991166 27.17193110991166 0 0 1 37.05617318446048,-4.473762689274452 L 36.47891940409392,-1.5298234791254846 L 48.331661771978816,-4.810448169721244 L 38.595516598771276,-12.3242672496717 L 38.01826281840472,-9.38032803952273 A 32.17193110991166 32.17193110991166 0 0 0 30.731376479436932,-9.962833884897684"/><text text-anchor="middle" pointer-events="none" font-size="8px" fill="#000000" x="30.81657730638287" y="-4.464286142890796" font-family="sans-serif"/></g><g class="relationship" transform="translate(-109.93286764344768 174.40385354245024) rotate(358.25649357550594)"><path class="outline" fill="#4C8EDA" stroke="none" d="M 25 2.5 L 28.759444743686828 2.5 L 28.759444743686828 -2.5 L 25 -2.5 Z M 28.759444743686828 2.5 L 32.518889487373656 2.5 L 32.518889487373656 5.5 L 43.518889487373656 0 L 32.518889487373656 -5.5 L 32.518889487373656 -2.5 L 28.759444743686828 -2.5 Z"/><text text-anchor="middle" pointer-events="none" font-size="8px" fill="#000000" x="28.759444743686828" y="3" font-family="sans-serif"/></g><g class="relationship" transform="translate(-109.93286764344768 174.40385354245024) rotate(358.25649357550594)"><path class="outline" fill="#569480" stroke="none" d="M 20.40063509461097,14.665063509461095 L 22.90063509461097,10.334936490538901 A 12.924699345418842 12.924699345418842 0 0 0 28.454408552186884,12.034542920215165 L 28.102920215456038,17.02217321416661 A 17.924699345418844 17.924699345418844 0 0 1 20.40063509461097,14.665063509461095 Z M 28.102920215456038,17.02217321416661 L 28.454408552186884,12.034542920215165 A 12.924699345418842 12.924699345418842 0 0 0 34.19165672603511,11.130637490678005 L 33.070855731830264,8.347868162941797 L 45.32914508957192,9.340008285040405 L 37.18045937724804,18.55135569797456 L 36.05965838304319,15.768586370238353 A 17.924699345418844 17.924699345418844 0 0 1 28.102920215456038,17.02217321416661"/><text text-anchor="middle" pointer-events="none" font-size="8px" fill="#000000" x="28.27866438382146" y="17.528358067190887" font-family="sans-serif"/></g><g class="relationship" transform="translate(-41.445699285834806 172.31915046073476) rotate(359.7680886237747)"><path class="outline" fill="#569480" stroke="none" d="M 25 2.5 L 29.21255120854171 2.5 L 29.21255120854171 -2.5 L 25 -2.5 Z M 29.21255120854171 2.5 L 33.42510241708342 2.5 L 33.42510241708342 5.5 L 44.42510241708342 0 L 33.42510241708342 -5.5 L 33.42510241708342 -2.5 L 29.21255120854171 -2.5 Z"/><text text-anchor="middle" pointer-events="none" font-size="8px" fill="#000000" x="29.21255120854171" y="3" font-family="sans-serif"/></g><g class="relationship" transform="translate(-41.445699285834806 172.31915046073476) rotate(359.7680886237747)"><path class="outline" fill="#4C8EDA" stroke="none" d="M 20.40063509461097,14.665063509461095 L 22.90063509461097,10.334936490538901 A 13.958740256245072 13.958740256245072 0 0 0 28.90994672681783,12.17130532131607 L 28.56247321627605,17.159216924329076 A 18.958740256245072 18.958740256245072 0 0 1 20.40063509461097,14.665063509461095 Z M 28.56247321627605,17.159216924329076 L 28.90994672681783,12.17130532131607 A 13.958740256245072 13.958740256245072 0 0 0 35.11583298561523,11.185885350696307 L 33.990553554928944,8.404923969649396 L 46.25042424169248,9.377328589052361 L 38.11657813411198,18.601782366821407 L 36.9912987034257,15.820820985774496 A 18.958740256245072 18.958740256245072 0 0 1 28.56247321627605,17.159216924329076"/><text text-anchor="middle" pointer-events="none" font-size="8px" fill="#000000" x="28.73620997154694" y="17.66526112282257" font-family="sans-serif"/></g><g class="relationship" transform="translate(27.97883442921409 172.03814499715426) rotate(359.9864707767251)"><path class="outline" fill="#4C8EDA" stroke="none" d="M 23.501098044470403,8.88529069328569 L 24.79519326998301,4.055661561840347 A 27.17193110991166 27.17193110991166 0 0 0 30.901778133328815,4.965738400883904 L 30.73137647943694,9.962833884897684 A 32.17193110991166 32.17193110991166 0 0 1 23.501098044470403,8.88529069328569 Z M 30.73137647943694,9.962833884897684 L 30.901778133328815,4.965738400883904 A 27.17193110991166 27.17193110991166 0 0 0 37.05617318446048,4.473762689274452 L 36.47891940409392,1.5298234791254846 L 48.331661771978816,4.810448169721244 L 38.595516598771276,12.3242672496717 L 38.01826281840472,9.38032803952273 A 32.17193110991166 32.17193110991166 0 0 1 30.73137647943694,9.962833884897684"/><text text-anchor="middle" pointer-events="none" font-size="8px" fill="#000000" x="30.816577306382875" y="10.464286142890796" font-family="sans-serif"/></g><g class="relationship" transform="translate(-182.68117665980293 173.34463502649874) rotate(289.69624690991566)"><path class="outline" fill="#F79767" stroke="none" d="M 15.90990257669732,19.445436482630054 L 19.445436482630058,15.909902576697316 A 63.72311444014291 63.72311444014291 0 0 0 28.606986302915843,23.500690593078225 L 25.79030849031573,27.63183160979579 A 68.72311444014291 68.72311444014291 0 0 1 15.90990257669732,19.445436482630054 Z M 96.77556181015949,31.525759775089362 L 94.42765606902157,27.111313192477724 A 63.72311444014291 63.72311444014291 0 0 0 104.36452864979002,20.568177771841633 L 102.48797037834912,18.227551989302544 L 114.51062174530077,15.637985595340886 L 109.3686840402991,26.8098465252792 L 107.4921257688582,24.469220742740113 A 68.72311444014291 68.72311444014291 0 0 1 96.77556181015949,31.525759775089362"/><text text-anchor="middle" pointer-events="none" font-size="8px" fill="#000000" x="60.877237248034874" y="39.974558309706794" font-family="sans-serif">FIRST_CHILD_OF</text></g><g class="relationship" transform="translate(-182.68117665980293 173.34463502649874) rotate(289.69624690991566)"><path class="outline" fill="#F16667" stroke="none" d="M 23.501098044470403,8.88529069328569 L 24.79519326998301,4.055661561840347 A 153.42491328591856 153.42491328591856 0 0 0 34.13578732550674,6.247891368652915 L 33.14609488098567,11.1489635845316 A 158.42491328591856 158.42491328591856 0 0 1 23.501098044470403,8.88529069328569 Z M 89.72770134376486,12.262675103839001 L 88.93163909575651,7.326453380972822 A 153.42491328591856 153.42491328591856 0 0 0 98.35126539159226,5.503486216496169 L 97.68944101421228,2.5773986420196993 L 109.63177347915598,5.515203144833256 L 100.1161303979389,13.306386415100086 L 99.45430602055892,10.380298840623617 A 158.42491328591856 158.42491328591856 0 0 1 89.72770134376486,12.262675103839001"/><text text-anchor="middle" pointer-events="none" font-size="8px" fill="#000000" x="61.43596368749107" y="14.753292374813213" font-family="sans-serif">IS_CHILD_OF</text></g><g class="relationship" transform="translate(-137.51333842569642 47.16971339466238) rotate(469.69624690991566)"><path class="outline" fill="#4C8EDA" stroke="none" d="M 23.501098044470403,8.88529069328569 L 24.79519326998301,4.055661561840347 A 153.42491328591856 153.42491328591856 0 0 0 48.23208111701406,8.418114487258777 L 47.701776052599826,13.389912606516702 A 158.42491328591856 158.42491328591856 0 0 1 23.501098044470403,8.88529069328569 Z M 75.09511017941205,13.929103231818857 L 74.76086264415486,8.940287882943494 A 153.42491328591856 153.42491328591856 0 0 0 98.35126539159226,5.503486216496169 L 97.68944101421228,2.5773986420196993 L 109.63177347915598,5.515203144833256 L 100.1161303979389,13.306386415100086 L 99.45430602055892,10.380298840623617 A 158.42491328591856 158.42491328591856 0 0 1 75.09511017941205,13.929103231818857"/><text text-anchor="middle" pointer-events="none" font-size="8px" fill="#000000" x="61.43596368749107" y="14.753292374813213" transform="rotate(180 61.43596368749107 11.753292374813213)" font-family="sans-serif">NEXT</text></g><g class="relationship" transform="translate(-182.68117665980293 173.34463502649874) rotate(289.69624690991566)"><path class="outline" fill="#8DCC93" stroke="none" d="M 15.90990257669732,-19.445436482630054 L 19.445436482630058,-15.909902576697316 A 63.72311444014291 63.72311444014291 0 0 1 30.21318858845858,-24.560654727117793 L 27.522540576791336,-28.77496526115668 A 68.72311444014291 68.72311444014291 0 0 0 15.90990257669732,-19.445436482630054 Z M 94.92868546611601,-32.47255981527833 L 92.71515055196178,-27.9892281095242 A 63.72311444014291 63.72311444014291 0 0 1 104.36452864979002,-20.568177771841633 L 102.48797037834912,-18.227551989302544 L 114.51062174530077,-15.637985595340886 L 109.3686840402991,-26.8098465252792 L 107.4921257688582,-24.469220742740113 A 68.72311444014291 68.72311444014291 0 0 0 94.92868546611601,-32.47255981527833"/><text text-anchor="middle" pointer-events="none" font-size="8px" fill="#000000" x="60.877237248034874" y="-33.974558309706794" font-family="sans-serif">LAST_CHILD_OF</text></g><g class="relationship" transform="translate(-182.68117665980293 173.34463502649874) rotate(329.1485653031229)"><path class="outline" fill="#4C8EDA" stroke="none" d="M 25 2.5 L 103.43126426054368 2.5 L 103.43126426054368 -2.5 L 25 -2.5 Z M 130.43126426054368 2.5 L 208.86252852108737 2.5 L 208.86252852108737 5.5 L 219.86252852108737 0 L 208.86252852108737 -5.5 L 208.86252852108737 -2.5 L 130.43126426054368 -2.5 Z"/><text text-anchor="middle" pointer-events="none" font-size="8px" fill="#000000" x="116.93126426054368" y="3" font-family="sans-serif">NEXT</text></g><g class="relationship" transform="translate(-109.93286764344768 174.40385354245024) rotate(317.3500190966663)"><path class="outline" fill="#F79767" stroke="none" d="M 23.501098044470403,8.88529069328569 L 24.79519326998301,4.055661561840347 A 258.3261777107412 258.3261777107412 0 0 0 52.42920925240928,9.862416739703917 L 51.66998076450949,14.804437794207956 A 263.3261777107412 263.3261777107412 0 0 1 23.501098044470403,8.88529069328569 Z M 124.12199467105211,15.848717597328687 L 123.50551462635532,10.886867906488476 A 258.3261777107412 258.3261777107412 0 0 0 151.29540667074616,5.8789596431783275 L 150.60278837759586,2.960007793627951 L 162.57541203005613,5.771819109585866 L 153.14238878581364,13.66283124197933 L 152.44977049266333,10.743879392428955 A 263.3261777107412 263.3261777107412 0 0 1 124.12199467105211,15.848717597328687"/><text text-anchor="middle" pointer-events="none" font-size="8px" fill="#000000" x="87.89592651369766" y="18.330824028091854" font-family="sans-serif">FIRST_CHILD_OF</text></g><g class="relationship" transform="translate(-109.93286764344768 174.40385354245024) rotate(317.3500190966663)"><path class="outline" fill="#F16667" stroke="none" d="M 23.501098044470403,-8.88529069328569 L 24.79519326998301,-4.055661561840347 A 258.3261777107412 258.3261777107412 0 0 1 60.277874316318346,-10.945257555733747 L 59.670559682706624,-15.90823740012172 A 263.3261777107412 263.3261777107412 0 0 0 23.501098044470403,-8.88529069328569 Z M 116.09292684026835,-16.721475504764385 L 115.62890159327883,-11.743054010941648 A 258.3261777107412 258.3261777107412 0 0 1 151.29540667074616,-5.8789596431783275 L 150.60278837759586,-2.960007793627951 L 162.57541203005613,-5.771819109585866 L 153.14238878581364,-13.66283124197933 L 152.44977049266333,-10.743879392428955 A 263.3261777107412 263.3261777107412 0 0 0 116.09292684026835,-16.721475504764385"/><text text-anchor="middle" pointer-events="none" font-size="8px" fill="#000000" x="87.89592651369759" y="-12.330824028091854" font-family="sans-serif">IS_CHILD_OF</text></g><g class="relationship" transform="translate(-41.445699285834806 172.31915046073476) rotate(298.9800949127974)"><path class="outline" fill="#F16667" stroke="none" d="M 25 2.5 L 37.68489022391687 2.5 L 37.68489022391687 -2.5 L 25 -2.5 Z M 93.68489022391687 2.5 L 106.36978044783373 2.5 L 106.36978044783373 5.5 L 117.36978044783373 0 L 106.36978044783373 -5.5 L 106.36978044783373 -2.5 L 93.68489022391687 -2.5 Z"/><text text-anchor="middle" pointer-events="none" font-size="8px" fill="#000000" x="65.68489022391687" y="3" font-family="sans-serif">IS_CHILD_OF</text></g><g class="relationship" transform="translate(27.97883442921409 172.03814499715426) rotate(269.79455989101075)"><path class="outline" fill="#F16667" stroke="none" d="M 23.501098044470403,8.88529069328569 L 24.79519326998301,4.055661561840347 A 133.82509062000108 133.82509062000108 0 0 0 29.379497110114922,5.197687621135316 L 28.25668156836316,10.069985360313467 A 138.82509062000108 138.82509062000108 0 0 1 23.501098044470403,8.88529069328569 Z M 84.8709215707471,11.26490887673694 L 83.95468784015402,6.349574122020471 A 133.82509062000108 133.82509062000108 0 0 0 88.58309574212382,5.4019953592043795 L 87.92959899860455,2.474036683572205 L 99.86352483904118,5.445806195993882 L 90.32575372484186,13.209885160890178 L 89.67225698132259,10.281926485258003 A 138.82509062000108 138.82509062000108 0 0 1 84.8709215707471,11.26490887673694"/><text text-anchor="middle" pointer-events="none" font-size="8px" fill="#000000" x="56.554982489823374" y="14.085285992454288" transform="rotate(180 56.554982489823374 11.085285992454288)" font-family="sans-serif">IS_CHILD_OF</text></g><g class="relationship" transform="translate(27.97883442921409 172.03814499715426) rotate(269.79455989101075)"><path class="outline" fill="#8DCC93" stroke="none" d="M 23.501098044470403,-8.88529069328569 L 24.79519326998301,-4.055661561840347 A 133.82509062000108 133.82509062000108 0 0 1 25.0919976615008,-4.134825073644095 L 23.808991701466837,-8.96741192816802 A 138.82509062000108 138.82509062000108 0 0 0 23.501098044470403,-8.88529069328569 Z M 89.36117249775975,-10.350983312028944 L 88.2832154465854,-5.468564997727782 A 133.82509062000108 133.82509062000108 0 0 1 88.58309574212382,-5.4019953592043795 L 87.92959899860455,-2.474036683572205 L 99.86352483904118,-5.445806195993882 L 90.32575372484186,-13.209885160890178 L 89.67225698132259,-10.281926485258003 A 138.82509062000108 138.82509062000108 0 0 0 89.36117249775975,-10.350983312028944"/><text text-anchor="middle" pointer-events="none" font-size="8px" fill="#000000" x="56.55498248982335" y="-8.085285992454288" transform="rotate(180 56.55498248982335 -11.085285992454288)" font-family="sans-serif">LAST_CHILD_…</text></g><g class="relationship" transform="translate(-137.51333842569642 47.16971339466238) rotate(360.21038872683056)"><path class="outline" fill="#569480" stroke="none" d="M 25 2.5 L 46.52386383318036 2.5 L 46.52386383318036 -2.5 L 25 -2.5 Z M 107.52386383318036 2.5 L 129.04772766636071 2.5 L 129.04772766636071 5.5 L 140.04772766636071 0 L 129.04772766636071 -5.5 L 129.04772766636071 -2.5 L 107.52386383318036 -2.5 Z"/><text text-anchor="middle" pointer-events="none" font-size="8px" fill="#000000" x="77.02386383318036" y="3" font-family="sans-serif">NEXT_SIBLING</text></g><g class="relationship" transform="translate(27.53327653901451 47.775763326293784) rotate(213.91371789295067)"><path class="outline" fill="#8DCC93" stroke="none" d="M 23.501098044470403,8.88529069328569 L 24.79519326998301,4.055661561840347 A 289.58375696918756 289.58375696918756 0 0 0 62.278588467772494,11.489055881256775 L 61.631687608237016,16.44703120168066 A 294.58375696918756 294.58375696918756 0 0 1 23.501098044470403,8.88529069328569 Z M 130.05284752307253,17.359748728770057 L 129.53842909231884,12.386281761140651 A 289.58375696918756 289.58375696918756 0 0 0 167.20676967846597,5.955388810110515 L 166.5078860222287,3.0379307324263785 L 178.4865190101722,5.824030468643954 L 169.07045942843203,13.735277017268213 L 168.37157577219475,10.817818939584077 A 294.58375696918756 294.58375696918756 0 0 1 130.05284752307253,17.359748728770057"/><text text-anchor="middle" pointer-events="none" font-size="8px" fill="#000000" x="95.84902259448752" y="19.397004479818577" transform="rotate(180 95.84902259448752 16.397004479818577)" font-family="sans-serif">LAST_CHILD_OF</text></g><g class="relationship" transform="translate(27.53327653901451 47.775763326293784) rotate(213.91371789295067)"><path class="outline" fill="#F16667" stroke="none" d="M 23.501098044470403,-8.88529069328569 L 24.79519326998301,-4.055661561840347 A 289.58375696918756 289.58375696918756 0 0 1 68.18472519832781,-12.198055422040852 L 67.63980065114441,-17.168272443245996 A 294.58375696918756 294.58375696918756 0 0 0 23.501098044470403,-8.88529069328569 Z M 124.02763350181182,-17.920469035958774 L 123.6154816400511,-12.93748490565622 A 289.58375696918756 289.58375696918756 0 0 1 167.20676967846597,-5.955388810110515 L 166.5078860222287,-3.0379307324263785 L 178.4865190101722,-5.824030468643954 L 169.07045942843203,-13.735277017268213 L 168.37157577219475,-10.817818939584077 A 294.58375696918756 294.58375696918756 0 0 0 124.02763350181182,-17.920469035958774"/><text text-anchor="middle" pointer-events="none" font-size="8px" fill="#000000" x="95.84902259448745" y="-13.397004479818577" transform="rotate(180 95.84902259448745 -16.397004479818577)" font-family="sans-serif">IS_CHILD_OF</text></g><g class="relationship" transform="translate(-256.4154626228092 175.08586952854478) rotate(295.6854258234921)"><path class="outline" fill="#4C8EDA" stroke="none" d="M 25 2.5 L 114.41309276096106 2.5 L 114.41309276096106 -2.5 L 25 -2.5 Z M 141.41309276096106 2.5 L 230.82618552192213 2.5 L 230.82618552192213 5.5 L 241.82618552192213 0 L 230.82618552192213 -5.5 L 230.82618552192213 -2.5 L 141.41309276096106 -2.5 Z"/><text text-anchor="middle" pointer-events="none" font-size="8px" fill="#000000" x="127.91309276096106" y="3" font-family="sans-serif">NEXT</text></g><g class="relationship" transform="translate(-137.51333842569642 47.16971339466238) rotate(268.3450407358957)"><path class="outline" fill="#F16667" stroke="none" d="M 23.501098044470403,8.88529069328569 L 24.79519326998301,4.055661561840347 A 110.19509372423798 110.19509372423798 0 0 0 25.173230272799195,4.156237429533206 L 23.89628812507072,8.990430097534201 A 115.19509372423798 115.19509372423798 0 0 1 23.501098044470403,8.88529069328569 Z M 77.55981272987613,10.230367396985145 L 76.50750964372038,5.342355713808942 A 110.19509372423798 110.19509372423798 0 0 0 76.88978849816945,5.259347532877825 L 76.24799931775938,2.3288003744262546 L 88.16995239616693,5.348243170083888 L 78.6012263125963,13.074139955415346 L 77.95943713218622,10.143592796963775 A 115.19509372423798 115.19509372423798 0 0 1 77.55981272987613,10.230367396985145"/><text text-anchor="middle" pointer-events="none" font-size="8px" fill="#000000" x="50.71256958231457" y="13.280397718540726" transform="rotate(180 50.71256958231457 10.280397718540726)" font-family="sans-serif">IS_CHILD_…</text></g><g class="relationship" transform="translate(-137.51333842569642 47.16971339466238) rotate(268.3450407358957)"><path class="outline" fill="#F79767" stroke="none" d="M 23.501098044470403,-8.88529069328569 L 24.79519326998301,-4.055661561840347 A 110.19509372423798 110.19509372423798 0 0 1 25.17323027279916,-4.156237429533192 L 23.89628812507068,-8.990430097534187 A 115.19509372423798 115.19509372423798 0 0 0 23.501098044470403,-8.88529069328569 Z M 77.55981272987613,-10.230367396985145 L 76.50750964372038,-5.342355713808942 A 110.19509372423798 110.19509372423798 0 0 1 76.88978849816945,-5.259347532877825 L 76.24799931775938,-2.3288003744262546 L 88.16995239616693,-5.348243170083888 L 78.6012263125963,-13.074139955415346 L 77.95943713218622,-10.143592796963775 A 115.19509372423798 115.19509372423798 0 0 0 77.55981272987613,-10.230367396985145"/><text text-anchor="middle" pointer-events="none" font-size="8px" fill="#000000" x="50.71256958231455" y="-7.280397718540712" transform="rotate(180 50.71256958231455 -10.280397718540712)" font-family="sans-serif">FIRST_CH…</text></g><g class="relationship" transform="translate(-327.43409193990504 175.13063970499763) rotate(359.9638807191343)"><path class="outline" fill="#FFC454" stroke="none" d="M 25 2.5 L 30.009321714332174 2.5 L 30.009321714332174 -2.5 L 25 -2.5 Z M 30.009321714332174 2.5 L 35.01864342866435 2.5 L 35.01864342866435 5.5 L 46.01864342866435 0 L 35.01864342866435 -5.5 L 35.01864342866435 -2.5 L 30.009321714332174 -2.5 Z"/><text text-anchor="middle" pointer-events="none" font-size="8px" fill="#000000" x="30.009321714332174" y="3" font-family="sans-serif"/></g><g class="relationship" transform="translate(-256.4154626228092 175.08586952854478) rotate(260.04015404166836)"><path class="outline" fill="#8DCC93" stroke="none" d="M 15.90990257669732,19.445436482630054 L 19.445436482630058,15.909902576697316 A 143.3150514551423 143.3150514551423 0 0 0 83.38497315829461,52.91998422945842 L 82.0801727317298,57.74673218712478 A 148.3150514551423 148.3150514551423 0 0 1 15.90990257669732,19.445436482630054 Z M 150.58838398680004,59.86050602426839 L 149.58363421657344,54.96249848045737 A 143.3150514551423 143.3150514551423 0 0 0 215.6832164588165,21.96468458857011 L 213.69671048580236,19.7166200834504 L 225.5815412884339,16.554216441784654 L 220.98056572018757,27.959523268889328 L 218.99405974717342,25.71145876376962 A 148.3150514551423 148.3150514551423 0 0 1 150.58838398680004,59.86050602426839"/><text text-anchor="middle" pointer-events="none" font-size="8px" fill="#000000" x="116.28759786309263" y="63.31655168015986" transform="rotate(180 116.28759786309263 60.31655168015986)" font-family="sans-serif">LAST_CHILD_OF</text></g><g class="relationship" transform="translate(-256.4154626228092 175.08586952854478) rotate(260.04015404166836)"><path class="outline" fill="#F16667" stroke="none" d="M 23.501098044470403,8.88529069328569 L 24.79519326998301,4.055661561840347 A 370.87412908371806 370.87412908371806 0 0 0 88.86997315797821,15.31718389452061 L 88.4397125176158,20.298637074201736 A 375.87412908371806 375.87412908371806 0 0 1 23.501098044470403,8.88529069328569 Z M 144.75833479832386,20.927566537763937 L 144.4394267952098,15.937747133662185 A 370.87412908371806 370.87412908371806 0 0 0 208.74971843578388,6.109945138872986 L 208.03816782878587,3.1955505647494364 L 220.0287907134019,5.9295883916499665 L 210.64718672111186,13.881664003202452 L 209.93563611411386,10.967269429078902 A 375.87412908371806 375.87412908371806 0 0 1 144.75833479832386,20.927566537763937"/><text text-anchor="middle" pointer-events="none" font-size="8px" fill="#000000" x="116.6151436108693" y="22.169611571981477" transform="rotate(180 116.6151436108693 19.169611571981477)" font-family="sans-serif">IS_CHILD_OF</text></g><g class="relationship" transform="translate(-298.67175836636625 -65.54751570947474) rotate(440.04015404166836)"><path class="outline" fill="#4C8EDA" stroke="none" d="M 23.501098044470403,8.88529069328569 L 24.79519326998301,4.055661561840347 A 370.87412908371806 370.87412908371806 0 0 0 103.23991636662257,16.277677200097855 L 103.00338645700899,21.272079426777054 A 375.87412908371806 375.87412908371806 0 0 1 23.501098044470403,8.88529069328569 Z M 130.17655404407677,21.57553155365332 L 130.0516176344559,16.577092708018483 A 370.87412908371806 370.87412908371806 0 0 0 208.74971843578388,6.109945138872986 L 208.03816782878587,3.1955505647494364 L 220.0287907134019,5.9295883916499665 L 210.64718672111186,13.881664003202452 L 209.93563611411386,10.967269429078902 A 375.87412908371806 375.87412908371806 0 0 1 130.17655404407677,21.57553155365332"/><text text-anchor="middle" pointer-events="none" font-size="8px" fill="#000000" x="116.6151436108693" y="22.169611571981477" font-family="sans-serif">NEXT</text></g><g class="relationship" transform="translate(-256.4154626228092 175.08586952854478) rotate(260.04015404166836)"><path class="outline" fill="#F79767" stroke="none" d="M 15.90990257669732,-19.445436482630054 L 19.445436482630058,-15.909902576697316 A 143.3150514551423 143.3150514551423 0 0 1 81.49095323052359,-52.3940149441127 L 80.12007391313257,-57.20241279549204 A 148.3150514551423 148.3150514551423 0 0 0 15.90990257669732,-19.445436482630054 Z M 152.57831162742272,-59.43806198790419 L 151.50647737652142,-54.554295885950225 A 143.3150514551423 143.3150514551423 0 0 1 215.6832164588165,-21.96468458857011 L 213.69671048580236,-19.7166200834504 L 225.5815412884339,-16.554216441784654 L 220.98056572018757,-27.959523268889328 L 218.99405974717342,-25.71145876376962 A 148.3150514551423 148.3150514551423 0 0 0 152.57831162742272,-59.43806198790419"/><text text-anchor="middle" pointer-events="none" font-size="8px" fill="#000000" x="116.28759786309264" y="-57.31655168015986" transform="rotate(180 116.28759786309264 -60.31655168015986)" font-family="sans-serif">FIRST_CHILD_OF</text></g><g class="relationship" transform="translate(-327.43409193990504 175.13063970499763) rotate(276.81483424053926)"><path class="outline" fill="#569480" stroke="none" d="M 23.501098044470403,-8.88529069328569 L 24.79519326998301,-4.055661561840347 A 367.11371970173286 367.11371970173286 0 0 1 85.43724034508533,-14.951945513262785 L 84.96907512192148,-19.929979394607926 A 372.11371970173286 372.11371970173286 0 0 0 23.501098044470403,-8.88529069328569 Z M 146.3081123886099,-20.620184396954187 L 145.95208014176575,-15.632876401732005 A 367.11371970173286 367.11371970173286 0 0 1 206.82395825688985,-6.103903102030198 L 206.11290276149433,-3.189387690770923 L 218.10306101100346,-5.925462461629336 L 208.72010624461123,-13.8759441987216 L 208.0090507492157,-10.961428787462324 A 372.11371970173286 372.11371970173286 0 0 0 146.3081123886099,-20.620184396954187"/><text text-anchor="middle" pointer-events="none" font-size="8px" fill="#000000" x="115.65247594485442" y="-16.04136127418235" font-family="sans-serif">NEXT_SIBLING</text></g><g class="relationship" transform="translate(-327.43409193990504 175.13063970499763) rotate(276.81483424053926)"><path class="outline" fill="#4C8EDA" stroke="none" d="M 23.501098044470403,8.88529069328569 L 24.79519326998301,4.055661561840347 A 367.11371970173286 367.11371970173286 0 0 0 102.27850106116938,16.14585319591845 L 102.0397097324185,21.14014781090799 A 372.11371970173286 372.11371970173286 0 0 1 23.501098044470403,8.88529069328569 Z M 129.2145691005555,21.445927371685855 L 129.08821856635763,16.44752407238036 A 367.11371970173286 367.11371970173286 0 0 0 206.82395825688985,6.103903102030198 L 206.11290276149433,3.189387690770923 L 218.10306101100346,5.925462461629336 L 208.72010624461123,13.8759441987216 L 208.0090507492157,10.961428787462324 A 372.11371970173286 372.11371970173286 0 0 1 129.2145691005555,21.445927371685855"/><text text-anchor="middle" pointer-events="none" font-size="8px" fill="#000000" x="115.65247594485442" y="22.04136127418235" font-family="sans-serif">NEXT</text></g><g class="relationship" transform="translate(-298.67175836636625 -65.54751570947474) rotate(360.0627778331582)"><path class="outline" fill="#569480" stroke="none" d="M 25 2.5 L 42.95341417845283 2.5 L 42.95341417845283 -2.5 L 25 -2.5 Z M 103.95341417845283 2.5 L 121.90682835690566 2.5 L 121.90682835690566 5.5 L 132.90682835690566 0 L 121.90682835690566 -5.5 L 121.90682835690566 -2.5 L 103.95341417845283 -2.5 Z"/><text text-anchor="middle" pointer-events="none" font-size="8px" fill="#000000" x="73.45341417845283" y="3" font-family="sans-serif">NEXT_SIBLING</text></g></g><g class="layer nodes"><g class="node" transform="translate(-256.4154626228092,175.08586952854478)"><circle class="outline" cx="0" cy="0" r="25" fill="#FFC454" stroke="#d7a013" stroke-width="2px"/><text text-anchor="middle" pointer-events="none" font-family="sans-serif" dy="1.5625" font-size="25" fill="#604A0E"/><text text-anchor="middle" pointer-events="none" y="5" font-size="10px" fill="#604A0E" font-family="sans-serif">  </text></g><g class="node" transform="translate(-182.68117665980293,173.34463502649874)"><circle class="outline" cx="0" cy="0" r="25" fill="#FFC454" stroke="#d7a013" stroke-width="2px"/><text text-anchor="middle" pointer-events="none" font-family="sans-serif" dy="1.5625" font-size="25" fill="#604A0E"/><text text-anchor="middle" pointer-events="none" y="5" font-size="10px" fill="#604A0E" font-family="sans-serif"> rotiren</text></g><g class="node" transform="translate(-109.93286764344768,174.40385354245024)"><circle class="outline" cx="0" cy="0" r="25" fill="#FFC454" stroke="#d7a013" stroke-width="2px"/><text text-anchor="middle" pointer-events="none" font-family="sans-serif" dy="1.5625" font-size="25" fill="#604A0E"/><text text-anchor="middle" pointer-events="none" y="5" font-size="10px" fill="#604A0E" font-family="sans-serif"> bewegen</text></g><g class="node" transform="translate(-41.445699285834806,172.31915046073476)"><circle class="outline" cx="0" cy="0" r="25" fill="#FFC454" stroke="#d7a013" stroke-width="2px"/><text text-anchor="middle" pointer-events="none" font-family="sans-serif" dy="1.5625" font-size="25" fill="#604A0E"/><text text-anchor="middle" pointer-events="none" y="5" font-size="10px" fill="#604A0E" font-family="sans-serif">  </text></g><g class="node" transform="translate(27.97883442921409,172.03814499715426)"><circle class="outline" cx="0" cy="0" r="25" fill="#FFC454" stroke="#d7a013" stroke-width="2px"/><text text-anchor="middle" pointer-events="none" font-family="sans-serif" dy="1.5625" font-size="25" fill="#604A0E"/><text text-anchor="middle" pointer-events="none" y="5" font-size="10px" fill="#604A0E" font-family="sans-serif"> ſich</text></g><g class="node" transform="translate(100.84332092107667,172.0209395426992)"><circle class="outline" cx="0" cy="0" r="25" fill="#FFC454" stroke="#d7a013" stroke-width="2px"/><text text-anchor="middle" pointer-events="none" font-family="sans-serif" dy="1.5625" font-size="25" fill="#604A0E"/><text text-anchor="middle" pointer-events="none" y="5" font-size="10px" fill="#604A0E" font-family="sans-serif">  </text></g><g class="node" transform="translate(-137.51333842569642,47.16971339466238)"><circle class="outline" cx="0" cy="0" r="25" fill="#57C7E3" stroke="#23b3d7" stroke-width="2px"/><text text-anchor="middle" pointer-events="none" font-family="sans-serif" dy="1.5625" font-size="25" fill="#FFFFFF"/><text text-anchor="middle" pointer-events="none" y="5" font-size="10px" fill="#FFFFFF" font-family="sans-serif"> del</text></g><g class="node" transform="translate(27.53327653901451,47.775763326293784)"><circle class="outline" cx="0" cy="0" r="25" fill="#57C7E3" stroke="#23b3d7" stroke-width="2px"/><text text-anchor="middle" pointer-events="none" font-family="sans-serif" dy="1.5625" font-size="25" fill="#FFFFFF"/><text text-anchor="middle" pointer-events="none" y="5" font-size="10px" fill="#FFFFFF" font-family="sans-serif"> add</text></g><g class="node" transform="translate(-140.7650247941627,-65.37450040841924)"><circle class="outline" cx="0" cy="0" r="25" fill="#57C7E3" stroke="#23b3d7" stroke-width="2px"/><text text-anchor="middle" pointer-events="none" font-family="sans-serif" dy="1.5625" font-size="25" fill="#FFFFFF"/><text text-anchor="middle" pointer-events="none" y="5" font-size="10px" fill="#FFFFFF" font-family="sans-serif"> subst</text></g><g class="node" transform="translate(-327.43409193990504,175.13063970499763)"><circle class="outline" cx="0" cy="0" r="25" fill="#FFC454" stroke="#d7a013" stroke-width="2px"/><text text-anchor="middle" pointer-events="none" font-family="sans-serif" dy="1.5625" font-size="25" fill="#604A0E"/><text text-anchor="middle" pointer-events="none" y="5" font-size="10px" fill="#604A0E" font-family="sans-serif"> ſie</text></g><g class="node" transform="translate(-298.67175836636625,-65.54751570947474)"><circle class="outline" cx="0" cy="0" r="25" fill="#57C7E3" stroke="#23b3d7" stroke-width="2px"/><text text-anchor="middle" pointer-events="none" font-family="sans-serif" dy="1.5625" font-size="25" fill="#FFFFFF"/><text text-anchor="middle" pointer-events="none" y="5" font-size="10px" fill="#FFFFFF" font-family="sans-serif"> lb</text></g></g></svg>